# xmcd
#
# Track frame offsets:
#	182
#	11090
#	22770
#	36522
#	48652
#	61402
#	77420
#	90957
#	102025
#	113047
#	125442
#	138905
#	150400
#	162315
#
# Disc length: 2311 seconds
# Revision: 0
# Processed by: cddbd v1.5.2PL0 Copyright (c) Steve Scherf et al.
# Submitted via: dBpowerAMP V12.0
#
DISCID=a009050e
DTITLE=Brenda Lee - My greatest songs
DYEAR=1991
DGENRE=Country
TTITLE0=Sweet nothin'
TTITLE1=Let's jump the broomstick
TTITLE2=Weep no more my baby
TTITLE3=I'm sorry
TTITLE4=Emotions
TTITLE5=You can depend on me
TTITLE6=Teach me tonight
TTITLE7=Fool Nr. 1
TTITLE8=Dum dum
TTITLE9=All alone am I
TTITLE10=I wonder
TTITLE11=Losing you
TTITLE12=Break it to me gently
TTITLE13=Heart in hand
EXTD=
EXTT0=
EXTT1=
EXTT2=
EXTT3=
EXTT4=
EXTT5=
EXTT6=
EXTT7=
EXTT8=
EXTT9=
EXTT10=
EXTT11=
EXTT12=
EXTT13=
PLAYORDER=
